PathFileType	4	(X/Y/Z)	C:/Users/opensim2020/Desktop/walking_exp_matlab/subject01_walking04_static.trc	
DataRate	CameraRate	NumFrames	NumMarkers	Units	OrigDataRate	OrigDataStartFrame	OrigNumFrames	
100.00	100.00	9	43	mm	100.00	121	321	
Frame#	Time	LFHD			RFHD			LBHD			RBHD			C7			T10			CLAV			STRN			RBAK			LSHO			LUPA			LELB			LFRM			LWRA			LWRB			LFIN			RSHO			RUPA			RELB			RFRM			RWRA			RWRB			RFIN			LASI			RASI			LPSI			RPSI			LTHI			LKNE			LTIB			LANK			LHEE			LTOE			RTHI			RKNE			RTIB			RANK			RHEE			RTOE			*39			*40			*41			*42			
		X1	Y1	Z1	X2	Y2	Z2	X3	Y3	Z3	X4	Y4	Z4	X5	Y5	Z5	X6	Y6	Z6	X7	Y7	Z7	X8	Y8	Z8	X9	Y9	Z9	X10	Y10	Z10	X11	Y11	Z11	X12	Y12	Z12	X13	Y13	Z13	X14	Y14	Z14	X15	Y15	Z15	X16	Y16	Z16	X17	Y17	Z17	X18	Y18	Z18	X19	Y19	Z19	X20	Y20	Z20	X21	Y21	Z21	X22	Y22	Z22	X23	Y23	Z23	X24	Y24	Z24	X25	Y25	Z25	X26	Y26	Z26	X27	Y27	Z27	X28	Y28	Z28	X29	Y29	Z29	X30	Y30	Z30	X31	Y31	Z31	X32	Y32	Z32	X33	Y33	Z33	X34	Y34	Z34	X35	Y35	Z35	X36	Y36	Z36	X37	Y37	Z37	X38	Y38	Z38	X39	Y39	Z39	X40	Y40	Z40	X41	Y41	Z41	X42	Y42	Z42	X43	Y43	Z43	

121	1.200	9.75295	-405.44470	1684.42200	7.35278	-291.44287	1694.21814	107.23473	-406.36667	1605.74805	108.53553	-285.85541	1614.16699	110.51950	-356.69247	1436.92957	134.85841	-345.94757	1143.20972	-36.55910	-346.04639	1375.75671	-85.68955	-345.74509	1221.21008	160.90643	-276.88846	1241.61292	15.96541	-510.50058	1398.38672	36.80066	-605.29944	1221.34668	46.92682	-628.38098	1073.17871	-4.20906	-638.00049	964.93848	-75.29168	-591.74634	853.26996	-34.51212	-636.21130	846.83069	-86.66369	-625.35858	779.87683	32.95727	-199.28410	1401.61511	83.45556	-82.47655	1212.02661	67.92877	-55.90430	1088.51221	19.84299	-36.86603	971.71625	-48.29752	-89.20602	857.22015	-29.26333	-34.44859	858.71667	-63.74997	-52.29388	781.94922	-51.39153	-445.64264	937.58569	-40.64673	-228.42101	941.29028	140.03696	-404.11661	951.64215	145.73749	-261.34799	957.06976	1.31518	-517.59943	606.48267	23.52372	-507.98618	472.29709	75.44526	-530.66998	293.03107	84.78149	-488.35864	71.63770	124.14885	-435.87228	39.40539	-64.32630	-509.07407	33.29647	32.75091	-157.74733	613.23962	25.40380	-173.45573	456.09329	72.63371	-151.12494	288.08627	79.79147	-179.12592	78.51256	124.75639	-227.62164	35.57843	-61.77853	-164.38564	36.98343	28.81183	-315.73254	1722.23682	-3101.85742	1973.01404	1023.27893	-3140.71240	2012.49292	1022.01398			 
122	1.210	9.93019	-405.50516	1684.40540	7.49696	-291.47775	1694.22021	107.38196	-406.36447	1605.74414	108.64782	-285.87772	1614.13538	110.61947	-356.70343	1436.90442	134.95100	-345.94717	1143.19250	-36.44073	-346.04813	1375.76648	-85.61666	-345.73843	1221.21875	160.98524	-276.91010	1241.58618	16.07224	-510.51627	1398.37012	36.87841	-605.29633	1221.32751	46.95663	-628.39240	1073.14026	-4.16497	-638.01868	964.90558	-75.15360	-591.98041	853.19952	-34.48304	-636.24695	846.80066	-86.61267	-625.40222	779.83154	33.04465	-199.30734	1401.60632	83.54801	-82.47601	1211.98608	67.97102	-55.91848	1088.49866	19.87506	-36.86325	971.72638	-48.34806	-89.17371	857.23883	-29.27168	-34.42936	858.73889	-63.70671	-52.53299	781.89532	-51.35345	-445.65808	937.59088	-40.60241	-228.45721	941.29358	140.07581	-404.10101	951.59009	145.75075	-261.37164	957.03918	1.28477	-517.62195	606.48987	23.51312	-507.97449	472.29538	75.43118	-530.60394	292.99048	84.78029	-488.37186	71.60883	124.10903	-435.86020	39.35494	-64.31326	-509.06003	33.31041	32.72255	-157.73500	613.26337	25.37329	-173.41930	456.10934	72.60703	-151.12834	288.08487	79.81626	-179.14079	78.48946	124.77416	-227.62537	35.59589	-61.79642	-164.43800	37.01362	29.16118	-315.72516	1722.33081	-3101.99683	1972.95740	1023.89783	-3140.70044	2012.62256	1022.08331			 
123	1.220	10.08286	-405.52393	1684.40662	7.50585	-291.46561	1694.19348	107.52023	-406.39810	1605.70190	108.76976	-285.88721	1614.12061	110.74977	-356.70093	1436.87769	135.00452	-345.91107	1143.17566	-36.32562	-346.05179	1375.78870	-85.54819	-345.75165	1221.24170	161.03448	-276.87949	1241.55896	16.20061	-510.52112	1398.36060	36.94886	-605.29437	1221.30054	47.01483	-628.35834	1073.11389	-4.10226	-638.00757	964.90112	-75.19502	-591.89874	853.22437	-34.43261	-636.26123	846.76440	-86.55769	-625.44568	779.82416	33.16503	-199.30899	1401.59119	83.59761	-82.46052	1211.99048	68.01168	-55.90569	1088.48816	19.88900	-36.85307	971.71509	-48.33091	-89.15974	857.22876	-29.25721	-34.41234	858.72455	-63.79120	-52.27301	781.99432	-51.30550	-445.66144	937.61566	-40.58116	-228.47803	941.29492	140.13402	-404.09106	951.59387	145.81967	-261.31140	957.05481	1.28871	-517.59613	606.48077	23.50216	-507.93076	472.27347	75.40765	-530.60638	292.98578	84.79483	-488.32025	71.57807	124.15051	-435.87411	39.38375	-64.32127	-509.08569	33.29321	32.72515	-157.71223	613.23218	25.34027	-173.47415	456.06641	72.59290	-151.10564	288.08301	79.79180	-179.16177	78.47130	124.71763	-227.68666	35.56456	-61.80969	-164.42448	37.01272	29.29912	-315.74780	1722.34241	-3101.90063	1973.14734	1023.40955	-3140.64087	2012.54712	1021.98792			 
124	1.230	10.28688	-405.56653	1684.40930	7.81177	-291.53210	1694.23364	107.70756	-406.39630	1605.65588	108.84978	-285.90878	1614.10022	110.84271	-356.69736	1436.84509	135.07930	-345.91162	1143.16553	-36.21340	-346.04840	1375.78247	-85.42838	-345.74594	1221.23181	161.11801	-276.89948	1241.50610	16.32193	-510.52063	1398.35303	37.01561	-605.28546	1221.29712	47.07932	-628.37170	1073.10986	-4.05227	-638.02698	964.90100	-75.14689	-591.92267	853.21625	-34.39303	-636.29205	846.78192	-86.51516	-625.51459	779.84222	33.28086	-199.30064	1401.58838	83.66944	-82.45712	1211.98096	68.04728	-55.91832	1088.48120	19.93379	-36.82738	971.68353	-48.34869	-89.13564	857.27643	-29.24318	-34.40409	858.72998	-63.82458	-52.27309	782.01251	-51.28386	-445.66885	937.60333	-40.54146	-228.47856	941.29590	140.17137	-404.07968	951.55396	145.82907	-261.36035	957.01575	1.26106	-517.61530	606.49286	23.46729	-507.96954	472.28717	75.38802	-530.61786	292.99274	84.77735	-488.34387	71.62164	124.11591	-435.84512	39.34409	-64.34756	-509.07184	33.31066	32.72159	-157.71005	613.22601	25.33714	-173.45197	456.07153	72.61881	-151.09593	288.04425	79.76851	-179.14902	78.50399	124.72487	-227.65529	35.58559	-61.79121	-164.41112	36.97608	29.44852	-315.79355	1722.32910	-3101.94580	1973.02551	1023.86920	-3140.57104	2012.55261	1021.91248			 
125	1.240	10.42836	-405.59473	1684.41199	7.83230	-291.51599	1694.17688	107.83322	-406.41464	1605.63403	108.98556	-285.90118	1614.06982	110.96169	-356.71237	1436.82495	135.14961	-345.88400	1143.11328	-36.13062	-346.06995	1375.78394	-85.35571	-345.75128	1221.24524	161.20650	-276.88202	1241.48914	16.44454	-510.52820	1398.33325	37.09768	-605.26685	1221.27039	47.14404	-628.36237	1073.07532	-3.98975	-638.00598	964.88196	-75.11502	-591.90594	853.18781	-34.34601	-636.30853	846.78290	-86.48014	-625.53082	779.83282	33.37883	-199.32764	1401.58875	83.71096	-82.45386	1211.94214	68.10658	-55.92286	1088.44678	19.95422	-36.82985	971.68475	-48.34739	-89.14030	857.28400	-29.24519	-34.37220	858.74402	-63.82007	-52.22205	782.01947	-51.23235	-445.66699	937.60388	-40.50682	-228.45961	941.32294	140.20689	-404.07401	951.52716	145.89227	-261.33954	956.96759	1.24926	-517.60950	606.47522	23.45664	-507.94846	472.27405	75.37083	-530.60913	292.97614	84.77802	-488.32602	71.59297	124.12135	-435.86926	39.33352	-64.31910	-509.05365	33.29770	32.71078	-157.70149	613.23419	25.07029	-173.48048	455.86444	72.58562	-151.13579	288.06674	79.81486	-179.13023	78.45410	124.75185	-227.64130	35.57084	-61.78725	-164.39532	36.98253	29.59969	-315.79947	1722.32336	-3101.93774	1973.17773	1023.37683	-3140.63330	2012.43530	1021.87714			 
126	1.250	10.60748	-405.59976	1684.39465	7.97862	-291.52039	1694.18335	108.00285	-406.40189	1605.61646	109.11308	-285.94321	1614.03662	111.07539	-356.71674	1436.81555	135.22701	-345.90265	1143.09009	-36.01463	-346.05518	1375.81604	-85.28503	-345.76239	1221.28015	161.27254	-276.86212	1241.46863	16.56857	-510.51462	1398.32776	37.20299	-605.24866	1221.27197	47.23526	-628.31372	1073.04565	-3.92753	-637.99036	964.87268	-75.11065	-591.91400	853.22601	-34.28900	-636.31134	846.78052	-86.41724	-625.53064	779.81354	33.52907	-199.30495	1401.56152	83.79933	-82.47817	1211.92957	68.19203	-55.92216	1088.40161	20.02722	-36.83632	971.68506	-48.32250	-89.12252	857.27948	-29.21618	-34.38463	858.77252	-63.83946	-52.21512	782.07190	-51.19743	-445.67487	937.63129	-40.47240	-228.47612	941.32660	140.24207	-404.08109	951.52563	146.12706	-261.39221	956.95465	1.25477	-517.57617	606.48138	23.44003	-507.94928	472.28412	75.36329	-530.60120	292.98828	84.79617	-488.33395	71.61539	124.17523	-435.86536	39.36758	-64.31707	-509.07443	33.30311	32.70420	-157.74413	613.22040	25.31381	-173.43933	456.07193	72.55971	-151.12720	288.04562	79.80299	-179.11981	78.46450	124.72405	-227.61206	35.61145	-61.79478	-164.39856	37.00655	29.57849	-315.86267	1722.21545	-3101.90942	1973.13354	1023.35376	-3140.63428	2012.46985	1021.87518			 
127	1.260	10.76337	-405.62991	1684.41650	8.07909	-291.52408	1694.18799	108.15723	-406.44324	1605.55481	109.26970	-285.91501	1614.06543	111.18796	-356.66101	1436.79114	135.31155	-345.90024	1143.09485	-35.88261	-346.08441	1375.80505	-85.20403	-345.75119	1221.29736	161.37788	-276.87347	1241.46008	16.69641	-510.51566	1398.33826	37.31405	-605.25616	1221.26294	47.29525	-628.30237	1073.03979	-3.85175	-637.97784	964.87958	-75.06030	-591.89557	853.23419	-34.21830	-636.28528	846.77997	-86.36951	-625.53333	779.83173	33.64514	-199.30777	1401.57520	83.84817	-82.46432	1211.92773	68.25183	-55.93213	1088.41077	20.03944	-36.84299	971.66748	-48.30937	-89.11297	857.29382	-29.19753	-34.38874	858.76117	-63.82194	-52.19808	782.07355	-51.16033	-445.65698	937.64777	-40.43103	-228.45744	941.33795	140.27768	-404.08063	951.49963	146.14532	-261.35919	956.94562	1.25259	-517.59637	606.51453	23.43172	-507.96509	472.30542	75.34610	-530.59558	292.98676	84.77261	-488.33710	71.66038	124.11998	-435.85428	39.34156	-64.29173	-509.05362	33.30418	32.73732	-157.73470	613.23999	25.28584	-173.44722	456.06705	72.55545	-151.14035	288.04599	79.79297	-179.14159	78.48008	124.73131	-227.58507	35.64019	-61.79190	-164.40715	36.99878	29.75143	-315.87677	1722.20447	-3101.89697	1973.25464	1023.26526	-3140.55933	2012.50293	1021.98260			 
128	1.270	10.92031	-405.63712	1684.41858	8.22346	-291.55927	1694.20020	108.28987	-406.42343	1605.55554	109.40333	-285.89487	1614.07104	111.31860	-356.72995	1436.78918	135.33789	-345.89233	1143.05774	-35.77711	-346.08594	1375.82092	-85.14543	-345.76730	1221.31628	161.46152	-276.87897	1241.42590	16.82132	-510.51736	1398.31982	37.43719	-605.21094	1221.23291	47.44783	-627.97449	1072.99365	-3.79710	-637.95825	964.86377	-75.04325	-591.86609	853.24304	-34.20027	-636.26312	846.75378	-86.34225	-625.53400	779.80182	33.72672	-199.31042	1401.55908	83.93426	-82.50263	1211.90601	68.30711	-55.92965	1088.40100	20.10291	-36.85736	971.67450	-48.30191	-89.14249	857.29810	-29.18472	-34.40002	858.76160	-63.81759	-52.20905	782.05566	-51.12201	-445.68344	937.64093	-40.40412	-228.45563	941.36212	140.31268	-404.09052	951.47827	146.15485	-261.36456	956.91034	1.23747	-517.60004	606.50775	23.40014	-507.96014	472.30783	75.34156	-530.60736	292.99463	84.75033	-488.35858	71.64101	124.14822	-435.87537	39.38564	-64.30627	-509.06369	33.26330	32.75847	-157.73589	613.24487	25.10601	-173.46895	455.88144	72.57845	-151.11937	288.04773	79.76460	-179.15613	78.47598	124.75493	-227.59358	35.65829	-61.79788	-164.38791	36.98160	29.85973	-315.90646	1722.19873	-3101.94043	1973.12610	1023.29565	-3140.63770	2012.53162	1021.90216			 
129	1.280	11.09460	-405.65802	1684.40381	8.50954	-291.63837	1694.29407	108.45846	-406.42618	1605.56555	109.49889	-285.93054	1614.04736	111.47049	-356.69495	1436.76038	135.42381	-345.88712	1143.04260	-35.63979	-346.07065	1375.84802	-85.07377	-345.78375	1221.36316	161.57120	-276.88760	1241.39880	16.95899	-510.53293	1398.30969	37.55315	-605.20782	1221.21643	47.55700	-627.94562	1072.99463	-3.73045	-637.92346	964.82874	-75.01191	-591.80597	853.22235	-34.14811	-636.21295	846.72736	-86.30473	-625.49750	779.79938	33.84091	-199.32867	1401.53369	84.04469	-82.50040	1211.86389	68.34491	-55.97623	1088.37183	20.12988	-36.86670	971.65668	-48.28091	-89.18453	857.28912	-29.15151	-34.41092	858.75458	-63.81872	-52.22170	782.08777	-51.08044	-445.66425	937.66791	-40.36477	-228.43709	941.39319	140.34969	-404.09348	951.45349	146.21130	-261.35120	956.89764	1.24925	-517.60376	606.50092	23.40195	-507.96454	472.30124	75.33282	-530.58777	292.97940	84.77396	-488.32535	71.63638	124.14475	-435.89572	39.37701	-64.32171	-509.07019	33.29700	32.79446	-157.71222	613.26965	25.35942	-173.46062	456.11325	72.58817	-151.14751	288.06082	79.76471	-179.13412	78.47392	124.72656	-227.63336	35.57260	-61.78473	-164.39679	36.99198	30.03880	-315.89374	1722.22668	-3101.89404	1973.13647	1023.44629	-3140.72046	2012.49902	1021.95648			 
